<svg xmlns="http://www.w3.org/2000/svg" xmlns:xlink="http://www.w3.org/1999/xlink" width="200" zoomAndPan="magnify" viewBox="0 0 150 30.000001" height="40" preserveAspectRatio="xMidYMid meet" version="1.0"><defs><g/></defs><g fill="#ffffff" fill-opacity="1"><g transform="translate(2.143871, 20.439988)"><g><path d="M 3.703125 -2.21875 L 8.125 -2.21875 L 8.125 0 L 1.046875 0 L 1.046875 -10.453125 L 3.703125 -10.453125 Z M 3.703125 -2.21875 "/></g></g></g><g fill="#ffffff" fill-opacity="1"><g transform="translate(13.724002, 20.439988)"><g><path d="M 6 -10.53125 C 7.625 -10.53125 8.972656 -10.023438 10.046875 -9.015625 C 11.117188 -8.003906 11.65625 -6.742188 11.65625 -5.234375 C 11.65625 -3.710938 11.113281 -2.4375 10.03125 -1.40625 C 8.957031 -0.382812 7.613281 0.125 6 0.125 C 4.382812 0.125 3.039062 -0.382812 1.96875 -1.40625 C 0.894531 -2.425781 0.359375 -3.703125 0.359375 -5.234375 C 0.359375 -6.753906 0.894531 -8.015625 1.96875 -9.015625 C 3.039062 -10.023438 4.382812 -10.53125 6 -10.53125 Z M 6.03125 -8.3125 C 5.21875 -8.3125 4.519531 -8.015625 3.9375 -7.421875 C 3.363281 -6.828125 3.078125 -6.09375 3.078125 -5.21875 C 3.078125 -4.34375 3.363281 -3.601562 3.9375 -3 C 4.519531 -2.40625 5.210938 -2.109375 6.015625 -2.109375 C 6.828125 -2.109375 7.515625 -2.40625 8.078125 -3 C 8.640625 -3.601562 8.921875 -4.34375 8.921875 -5.21875 C 8.921875 -6.09375 8.640625 -6.828125 8.078125 -7.421875 C 7.515625 -8.015625 6.832031 -8.3125 6.03125 -8.3125 Z M 6.03125 -8.3125 "/></g></g></g><g fill="#ffffff" fill-opacity="1"><g transform="translate(28.959086, 20.439988)"><g><path d="M 7.34375 0 L 5.796875 -2.9375 L 3.703125 -2.9375 L 3.703125 0 L 1.046875 0 L 1.046875 -10.453125 L 5.71875 -10.453125 C 7.101562 -10.453125 8.171875 -10.132812 8.921875 -9.5 C 9.679688 -8.863281 10.0625 -7.960938 10.0625 -6.796875 C 10.0625 -5.191406 9.425781 -4.078125 8.15625 -3.453125 L 10.359375 0 Z M 3.703125 -5.03125 L 5.71875 -5.03125 C 6.289062 -5.03125 6.734375 -5.171875 7.046875 -5.453125 C 7.367188 -5.742188 7.53125 -6.164062 7.53125 -6.71875 C 7.53125 -7.25 7.367188 -7.65625 7.046875 -7.9375 C 6.734375 -8.21875 6.289062 -8.359375 5.71875 -8.359375 L 3.703125 -8.359375 Z M 3.703125 -5.03125 "/></g></g></g><g fill="#ffffff" fill-opacity="1"><g transform="translate(42.9858, 20.439988)"><g><path d="M 3.703125 0 L 1.046875 0 L 1.046875 -10.453125 L 3.703125 -10.453125 Z M 3.703125 0 "/></g></g></g><g fill="#ffffff" fill-opacity="1"><g transform="translate(50.955722, 20.439988)"><g><path d="M 5.0625 -10.5625 C 6.625 -10.5625 7.992188 -10.175781 9.171875 -9.40625 L 8.171875 -7.328125 C 7.628906 -7.640625 7.039062 -7.898438 6.40625 -8.109375 C 5.78125 -8.316406 5.253906 -8.421875 4.828125 -8.421875 C 4.066406 -8.421875 3.6875 -8.164062 3.6875 -7.65625 C 3.6875 -7.320312 3.875 -7.054688 4.25 -6.859375 C 4.625 -6.660156 5.082031 -6.488281 5.625 -6.34375 C 6.175781 -6.207031 6.722656 -6.035156 7.265625 -5.828125 C 7.804688 -5.617188 8.265625 -5.285156 8.640625 -4.828125 C 9.015625 -4.367188 9.203125 -3.796875 9.203125 -3.109375 C 9.203125 -2.097656 8.804688 -1.3125 8.015625 -0.75 C 7.234375 -0.1875 6.238281 0.09375 5.03125 0.09375 C 4.164062 0.09375 3.304688 -0.0546875 2.453125 -0.359375 C 1.609375 -0.660156 0.875 -1.066406 0.25 -1.578125 L 1.28125 -3.625 C 1.8125 -3.164062 2.429688 -2.789062 3.140625 -2.5 C 3.859375 -2.207031 4.5 -2.0625 5.0625 -2.0625 C 5.488281 -2.0625 5.820312 -2.132812 6.0625 -2.28125 C 6.300781 -2.4375 6.421875 -2.664062 6.421875 -2.96875 C 6.421875 -3.257812 6.28125 -3.5 6 -3.6875 C 5.726562 -3.882812 5.390625 -4.03125 4.984375 -4.125 C 4.578125 -4.21875 4.132812 -4.34375 3.65625 -4.5 C 3.175781 -4.664062 2.734375 -4.84375 2.328125 -5.03125 C 1.921875 -5.21875 1.578125 -5.515625 1.296875 -5.921875 C 1.023438 -6.335938 0.890625 -6.835938 0.890625 -7.421875 C 0.890625 -8.367188 1.269531 -9.128906 2.03125 -9.703125 C 2.789062 -10.273438 3.800781 -10.5625 5.0625 -10.5625 Z M 5.0625 -10.5625 "/></g></g></g><g fill="#ffffff" fill-opacity="1"><g transform="translate(63.78898, 20.439988)"><g/></g></g><g fill="#ffffff" fill-opacity="1"><g transform="translate(70.475936, 20.439988)"><g><path d="M 12.515625 0 L 10.171875 0 L 10.15625 -6.796875 L 7.65625 -1.046875 L 5.921875 -1.046875 L 3.421875 -6.796875 L 3.421875 0 L 1.046875 0 L 1.046875 -10.453125 L 3.953125 -10.453125 L 6.796875 -4.234375 L 9.625 -10.453125 L 12.515625 -10.453125 Z M 12.515625 0 "/></g></g></g><g fill="#ffffff" fill-opacity="1"><g transform="translate(87.277429, 20.439988)"><g><path d="M 7.984375 -1.921875 L 3.421875 -1.921875 L 2.65625 0 L -0.078125 0 L 4.4375 -10.453125 L 7.15625 -10.453125 L 11.5625 0 L 8.734375 0 Z M 7.203125 -3.9375 L 5.71875 -7.796875 L 4.1875 -3.9375 Z M 7.203125 -3.9375 "/></g></g></g><g fill="#ffffff" fill-opacity="1"><g transform="translate(101.990385, 20.439988)"><g><path d="M 7.34375 0 L 5.796875 -2.9375 L 3.703125 -2.9375 L 3.703125 0 L 1.046875 0 L 1.046875 -10.453125 L 5.71875 -10.453125 C 7.101562 -10.453125 8.171875 -10.132812 8.921875 -9.5 C 9.679688 -8.863281 10.0625 -7.960938 10.0625 -6.796875 C 10.0625 -5.191406 9.425781 -4.078125 8.15625 -3.453125 L 10.359375 0 Z M 3.703125 -5.03125 L 5.71875 -5.03125 C 6.289062 -5.03125 6.734375 -5.171875 7.046875 -5.453125 C 7.367188 -5.742188 7.53125 -6.164062 7.53125 -6.71875 C 7.53125 -7.25 7.367188 -7.65625 7.046875 -7.9375 C 6.734375 -8.21875 6.289062 -8.359375 5.71875 -8.359375 L 3.703125 -8.359375 Z M 3.703125 -5.03125 "/></g></g></g><g fill="#ffffff" fill-opacity="1"><g transform="translate(116.017096, 20.439988)"><g><path d="M 6 -10.53125 C 7.625 -10.53125 8.972656 -10.023438 10.046875 -9.015625 C 11.117188 -8.003906 11.65625 -6.742188 11.65625 -5.234375 C 11.65625 -3.710938 11.113281 -2.4375 10.03125 -1.40625 C 8.957031 -0.382812 7.613281 0.125 6 0.125 C 4.382812 0.125 3.039062 -0.382812 1.96875 -1.40625 C 0.894531 -2.425781 0.359375 -3.703125 0.359375 -5.234375 C 0.359375 -6.753906 0.894531 -8.015625 1.96875 -9.015625 C 3.039062 -10.023438 4.382812 -10.53125 6 -10.53125 Z M 6.03125 -8.3125 C 5.21875 -8.3125 4.519531 -8.015625 3.9375 -7.421875 C 3.363281 -6.828125 3.078125 -6.09375 3.078125 -5.21875 C 3.078125 -4.34375 3.363281 -3.601562 3.9375 -3 C 4.519531 -2.40625 5.210938 -2.109375 6.015625 -2.109375 C 6.828125 -2.109375 7.515625 -2.40625 8.078125 -3 C 8.640625 -3.601562 8.921875 -4.34375 8.921875 -5.21875 C 8.921875 -6.09375 8.640625 -6.828125 8.078125 -7.421875 C 7.515625 -8.015625 6.832031 -8.3125 6.03125 -8.3125 Z M 6.03125 -8.3125 "/></g></g></g><g fill="#ffffff" fill-opacity="1"><g transform="translate(131.25218, 20.439988)"><g><path d="M 3.703125 -2.21875 L 8.125 -2.21875 L 8.125 0 L 1.046875 0 L 1.046875 -10.453125 L 3.703125 -10.453125 Z M 3.703125 -2.21875 "/></g></g></g><g fill="#ffffff" fill-opacity="1"><g transform="translate(142.832309, 20.439988)"><g><path d="M 3.703125 0 L 1.046875 0 L 1.046875 -10.453125 L 3.703125 -10.453125 Z M 3.703125 0 "/></g></g></g></svg>