<svg xmlns="http://www.w3.org/2000/svg" xmlns:xlink="http://www.w3.org/1999/xlink" width="120" zoomAndPan="magnify" viewBox="0 0 90 30.000001" height="40" preserveAspectRatio="xMidYMid meet" version="1.0"><defs><g/><clipPath id="4991957122"><path d="M 1.453125 3 L 9 3 L 9 16 L 1.453125 16 Z M 1.453125 3 " clip-rule="nonzero"/></clipPath><clipPath id="927ddc9b19"><path d="M 30 25 L 33 25 L 33 29.03125 L 30 29.03125 Z M 30 25 " clip-rule="nonzero"/></clipPath></defs><g clip-path="url(#4991957122)"><g fill="#000000" fill-opacity="1"><g transform="translate(0.661459, 15.889306)"><g><path d="M 0.8125 -0.1875 L 0.90625 -0.1875 C 1 -0.1875 1.082031 -0.21875 1.15625 -0.28125 C 1.226562 -0.34375 1.289062 -0.421875 1.34375 -0.515625 C 1.40625 -0.617188 1.453125 -0.722656 1.484375 -0.828125 C 1.515625 -0.941406 1.53125 -1.046875 1.53125 -1.140625 L 1.53125 -10.859375 C 1.53125 -10.953125 1.515625 -11.050781 1.484375 -11.15625 C 1.453125 -11.269531 1.40625 -11.375 1.34375 -11.46875 C 1.289062 -11.5625 1.226562 -11.640625 1.15625 -11.703125 C 1.082031 -11.773438 1 -11.8125 0.90625 -11.8125 L 0.8125 -11.8125 L 0.8125 -12 L 3.4375 -12 L 3.4375 -11.8125 L 3.34375 -11.8125 C 3.25 -11.8125 3.164062 -11.773438 3.09375 -11.703125 C 3.019531 -11.640625 2.957031 -11.5625 2.90625 -11.46875 C 2.851562 -11.375 2.8125 -11.269531 2.78125 -11.15625 C 2.757812 -11.050781 2.75 -10.953125 2.75 -10.859375 L 2.75 -0.671875 L 6.71875 -0.671875 C 6.945312 -0.671875 7.144531 -0.722656 7.3125 -0.828125 C 7.488281 -0.941406 7.632812 -1.078125 7.75 -1.234375 C 7.863281 -1.398438 7.945312 -1.578125 8 -1.765625 C 8.0625 -1.953125 8.09375 -2.128906 8.09375 -2.296875 L 8.265625 -2.296875 L 8.265625 0 L 0.8125 0 Z M 0.8125 -0.1875 "/></g></g></g></g><g fill="#000000" fill-opacity="1"><g transform="translate(9.109671, 15.889306)"><g><path d="M 4.640625 0.125 C 4.023438 0.125 3.472656 0.0234375 2.984375 -0.171875 C 2.503906 -0.367188 2.09375 -0.640625 1.75 -0.984375 C 1.40625 -1.335938 1.140625 -1.75 0.953125 -2.21875 C 0.765625 -2.6875 0.671875 -3.203125 0.671875 -3.765625 C 0.671875 -4.359375 0.773438 -4.898438 0.984375 -5.390625 C 1.191406 -5.878906 1.472656 -6.296875 1.828125 -6.640625 C 2.191406 -6.992188 2.625 -7.269531 3.125 -7.46875 C 3.625 -7.664062 4.164062 -7.765625 4.75 -7.765625 C 5.320312 -7.765625 5.847656 -7.671875 6.328125 -7.484375 C 6.816406 -7.296875 7.238281 -7.03125 7.59375 -6.6875 C 7.945312 -6.34375 8.21875 -5.9375 8.40625 -5.46875 C 8.601562 -5.007812 8.703125 -4.5 8.703125 -3.9375 C 8.703125 -3.414062 8.613281 -2.910156 8.4375 -2.421875 C 8.257812 -1.929688 8 -1.5 7.65625 -1.125 C 7.3125 -0.75 6.890625 -0.445312 6.390625 -0.21875 C 5.890625 0.0078125 5.304688 0.125 4.640625 0.125 Z M 4.53125 -7.15625 C 4.09375 -7.132812 3.707031 -7.03125 3.375 -6.84375 C 3.039062 -6.65625 2.757812 -6.410156 2.53125 -6.109375 C 2.3125 -5.816406 2.144531 -5.484375 2.03125 -5.109375 C 1.914062 -4.734375 1.859375 -4.351562 1.859375 -3.96875 C 1.859375 -3.519531 1.925781 -3.082031 2.0625 -2.65625 C 2.195312 -2.238281 2.394531 -1.863281 2.65625 -1.53125 C 2.914062 -1.207031 3.226562 -0.945312 3.59375 -0.75 C 3.957031 -0.5625 4.363281 -0.46875 4.8125 -0.46875 C 5.257812 -0.46875 5.65625 -0.5625 6 -0.75 C 6.351562 -0.945312 6.644531 -1.203125 6.875 -1.515625 C 7.101562 -1.828125 7.273438 -2.175781 7.390625 -2.5625 C 7.503906 -2.945312 7.5625 -3.332031 7.5625 -3.71875 C 7.5625 -4.125 7.5 -4.53125 7.375 -4.9375 C 7.257812 -5.34375 7.070312 -5.710938 6.8125 -6.046875 C 6.5625 -6.378906 6.242188 -6.644531 5.859375 -6.84375 C 5.472656 -7.050781 5.03125 -7.15625 4.53125 -7.15625 Z M 4.53125 -7.15625 "/></g></g></g><g fill="#000000" fill-opacity="1"><g transform="translate(18.611635, 15.889306)"><g><path d="M 5.25 -6.3125 C 5.101562 -6.550781 4.953125 -6.695312 4.796875 -6.75 C 4.640625 -6.8125 4.457031 -6.84375 4.25 -6.84375 C 4.113281 -6.84375 3.96875 -6.8125 3.8125 -6.75 C 3.664062 -6.695312 3.519531 -6.617188 3.375 -6.515625 C 3.226562 -6.421875 3.085938 -6.316406 2.953125 -6.203125 C 2.816406 -6.085938 2.695312 -5.984375 2.59375 -5.890625 L 2.59375 -1.15625 C 2.59375 -1.0625 2.601562 -0.957031 2.625 -0.84375 C 2.65625 -0.738281 2.695312 -0.632812 2.75 -0.53125 C 2.800781 -0.425781 2.859375 -0.34375 2.921875 -0.28125 C 2.992188 -0.21875 3.082031 -0.1875 3.1875 -0.1875 L 3.1875 0 L 0.8125 0 L 0.8125 -0.1875 C 0.894531 -0.1875 0.972656 -0.21875 1.046875 -0.28125 C 1.117188 -0.34375 1.179688 -0.425781 1.234375 -0.53125 C 1.296875 -0.632812 1.335938 -0.738281 1.359375 -0.84375 C 1.390625 -0.957031 1.40625 -1.0625 1.40625 -1.15625 L 1.40625 -6.234375 C 1.40625 -6.398438 1.347656 -6.566406 1.234375 -6.734375 C 1.128906 -6.910156 0.972656 -7.019531 0.765625 -7.0625 L 0.765625 -7.21875 L 2.59375 -7.765625 L 2.59375 -6.671875 C 2.707031 -6.804688 2.820312 -6.9375 2.9375 -7.0625 C 3.0625 -7.1875 3.195312 -7.300781 3.34375 -7.40625 C 3.5 -7.507812 3.664062 -7.59375 3.84375 -7.65625 C 4.03125 -7.726562 4.242188 -7.765625 4.484375 -7.765625 C 4.660156 -7.765625 4.878906 -7.726562 5.140625 -7.65625 C 5.410156 -7.582031 5.628906 -7.503906 5.796875 -7.421875 Z M 5.25 -6.3125 "/></g></g></g><g fill="#000000" fill-opacity="1"><g transform="translate(24.734319, 15.889306)"><g><path d="M 1.078125 0 L 1.078125 -0.1875 C 1.171875 -0.1875 1.253906 -0.222656 1.328125 -0.296875 C 1.398438 -0.367188 1.457031 -0.453125 1.5 -0.546875 C 1.550781 -0.640625 1.585938 -0.742188 1.609375 -0.859375 C 1.640625 -0.972656 1.65625 -1.082031 1.65625 -1.1875 L 1.65625 -6.21875 C 1.65625 -6.425781 1.625 -6.625 1.5625 -6.8125 C 1.5 -7 1.320312 -7.097656 1.03125 -7.109375 L 1.03125 -7.265625 L 2.859375 -7.84375 L 2.859375 -1.1875 C 2.859375 -1.082031 2.867188 -0.972656 2.890625 -0.859375 C 2.910156 -0.742188 2.945312 -0.640625 3 -0.546875 C 3.050781 -0.453125 3.113281 -0.367188 3.1875 -0.296875 C 3.257812 -0.222656 3.34375 -0.1875 3.4375 -0.1875 L 3.4375 0 Z M 1.15625 -9.59375 C 1.15625 -9.832031 1.238281 -10.035156 1.40625 -10.203125 C 1.570312 -10.378906 1.773438 -10.46875 2.015625 -10.46875 C 2.253906 -10.46875 2.457031 -10.378906 2.625 -10.203125 C 2.800781 -10.035156 2.890625 -9.832031 2.890625 -9.59375 C 2.890625 -9.351562 2.800781 -9.15625 2.625 -9 C 2.457031 -8.84375 2.253906 -8.765625 2.015625 -8.765625 C 1.773438 -8.765625 1.570312 -8.84375 1.40625 -9 C 1.238281 -9.15625 1.15625 -9.351562 1.15625 -9.59375 Z M 1.15625 -9.59375 "/></g></g></g><g fill="#000000" fill-opacity="1"><g transform="translate(29.294537, 15.889306)"><g><path d="M 6.71875 -2.078125 C 6.71875 -1.753906 6.640625 -1.457031 6.484375 -1.1875 C 6.328125 -0.925781 6.113281 -0.695312 5.84375 -0.5 C 5.570312 -0.300781 5.253906 -0.144531 4.890625 -0.03125 C 4.523438 0.0820312 4.128906 0.140625 3.703125 0.140625 C 3.179688 0.140625 2.753906 0.0703125 2.421875 -0.0625 C 2.097656 -0.195312 1.820312 -0.335938 1.59375 -0.484375 C 1.4375 -0.585938 1.289062 -0.671875 1.15625 -0.734375 C 1.03125 -0.796875 0.890625 -0.828125 0.734375 -0.828125 L 0.734375 -2.21875 L 0.90625 -2.21875 C 0.945312 -2.050781 1.050781 -1.863281 1.21875 -1.65625 C 1.394531 -1.457031 1.609375 -1.273438 1.859375 -1.109375 C 2.109375 -0.941406 2.378906 -0.800781 2.671875 -0.6875 C 2.972656 -0.570312 3.273438 -0.515625 3.578125 -0.515625 C 3.796875 -0.515625 4.019531 -0.535156 4.25 -0.578125 C 4.476562 -0.628906 4.6875 -0.707031 4.875 -0.8125 C 5.0625 -0.925781 5.21875 -1.0625 5.34375 -1.21875 C 5.476562 -1.382812 5.546875 -1.582031 5.546875 -1.8125 C 5.546875 -2.039062 5.476562 -2.238281 5.34375 -2.40625 C 5.207031 -2.582031 5.035156 -2.734375 4.828125 -2.859375 C 4.628906 -2.984375 4.394531 -3.09375 4.125 -3.1875 C 3.851562 -3.289062 3.585938 -3.382812 3.328125 -3.46875 C 3.015625 -3.5625 2.695312 -3.671875 2.375 -3.796875 C 2.050781 -3.921875 1.757812 -4.0625 1.5 -4.21875 C 1.25 -4.382812 1.046875 -4.582031 0.890625 -4.8125 C 0.734375 -5.050781 0.65625 -5.335938 0.65625 -5.671875 C 0.65625 -5.953125 0.707031 -6.21875 0.8125 -6.46875 C 0.914062 -6.71875 1.082031 -6.9375 1.3125 -7.125 C 1.550781 -7.320312 1.859375 -7.476562 2.234375 -7.59375 C 2.609375 -7.707031 3.0625 -7.765625 3.59375 -7.765625 C 4.070312 -7.765625 4.441406 -7.722656 4.703125 -7.640625 C 4.960938 -7.554688 5.175781 -7.472656 5.34375 -7.390625 C 5.445312 -7.335938 5.550781 -7.296875 5.65625 -7.265625 C 5.769531 -7.234375 5.894531 -7.21875 6.03125 -7.21875 L 6.03125 -5.9375 L 5.890625 -5.9375 C 5.671875 -6.34375 5.335938 -6.644531 4.890625 -6.84375 C 4.441406 -7.050781 3.976562 -7.15625 3.5 -7.15625 C 3.195312 -7.15625 2.9375 -7.113281 2.71875 -7.03125 C 2.507812 -6.957031 2.332031 -6.863281 2.1875 -6.75 C 2.050781 -6.632812 1.945312 -6.503906 1.875 -6.359375 C 1.8125 -6.210938 1.78125 -6.066406 1.78125 -5.921875 C 1.78125 -5.710938 1.835938 -5.535156 1.953125 -5.390625 C 2.066406 -5.242188 2.222656 -5.117188 2.421875 -5.015625 C 2.617188 -4.910156 2.84375 -4.804688 3.09375 -4.703125 C 3.34375 -4.609375 3.609375 -4.519531 3.890625 -4.4375 C 4.222656 -4.320312 4.5625 -4.203125 4.90625 -4.078125 C 5.25 -3.953125 5.550781 -3.796875 5.8125 -3.609375 C 6.082031 -3.429688 6.300781 -3.21875 6.46875 -2.96875 C 6.632812 -2.71875 6.71875 -2.421875 6.71875 -2.078125 Z M 6.71875 -2.078125 "/></g></g></g><g fill="#000000" fill-opacity="1"><g transform="translate(36.761661, 15.889306)"><g/></g></g><g fill="#000000" fill-opacity="1"><g transform="translate(41.48539, 15.889306)"><g><path d="M 10.59375 -0.1875 L 10.6875 -0.1875 C 10.769531 -0.1875 10.847656 -0.222656 10.921875 -0.296875 C 10.992188 -0.367188 11.054688 -0.453125 11.109375 -0.546875 C 11.160156 -0.640625 11.195312 -0.742188 11.21875 -0.859375 C 11.25 -0.972656 11.265625 -1.082031 11.265625 -1.1875 L 11.265625 -10.734375 L 6.578125 0.203125 L 2.125 -10.171875 L 2.125 -1.1875 C 2.125 -1.082031 2.132812 -0.972656 2.15625 -0.859375 C 2.1875 -0.742188 2.226562 -0.640625 2.28125 -0.546875 C 2.332031 -0.453125 2.394531 -0.367188 2.46875 -0.296875 C 2.539062 -0.222656 2.625 -0.1875 2.71875 -0.1875 L 2.8125 -0.1875 L 2.8125 0 L 0.828125 0 L 0.828125 -0.1875 L 0.921875 -0.1875 C 1.003906 -0.1875 1.082031 -0.222656 1.15625 -0.296875 C 1.226562 -0.367188 1.289062 -0.453125 1.34375 -0.546875 C 1.394531 -0.640625 1.429688 -0.742188 1.453125 -0.859375 C 1.472656 -0.972656 1.484375 -1.082031 1.484375 -1.1875 L 1.484375 -10.859375 C 1.484375 -10.953125 1.472656 -11.050781 1.453125 -11.15625 C 1.429688 -11.269531 1.394531 -11.375 1.34375 -11.46875 C 1.289062 -11.5625 1.226562 -11.640625 1.15625 -11.703125 C 1.082031 -11.773438 1.003906 -11.8125 0.921875 -11.8125 L 0.828125 -11.8125 L 0.828125 -12 L 2.6875 -12 L 6.90625 -2.046875 L 11.125 -12 L 13.171875 -12 L 13.171875 -11.8125 L 13.078125 -11.8125 C 12.984375 -11.8125 12.898438 -11.773438 12.828125 -11.703125 C 12.753906 -11.640625 12.691406 -11.5625 12.640625 -11.46875 C 12.585938 -11.375 12.546875 -11.269531 12.515625 -11.15625 C 12.492188 -11.050781 12.484375 -10.953125 12.484375 -10.859375 L 12.484375 -1.1875 C 12.484375 -1.082031 12.492188 -0.972656 12.515625 -0.859375 C 12.546875 -0.742188 12.585938 -0.640625 12.640625 -0.546875 C 12.691406 -0.453125 12.753906 -0.367188 12.828125 -0.296875 C 12.898438 -0.222656 12.984375 -0.1875 13.078125 -0.1875 L 13.171875 -0.1875 L 13.171875 0 L 10.59375 0 Z M 10.59375 -0.1875 "/></g></g></g><g fill="#000000" fill-opacity="1"><g transform="translate(55.602069, 15.889306)"><g><path d="M 5.609375 0 L 5.609375 -0.921875 L 5.53125 -0.828125 C 5.21875 -0.523438 4.863281 -0.289062 4.46875 -0.125 C 4.082031 0.0390625 3.609375 0.125 3.046875 0.125 C 2.628906 0.125 2.269531 0.078125 1.96875 -0.015625 C 1.664062 -0.109375 1.414062 -0.242188 1.21875 -0.421875 C 1.019531 -0.597656 0.875 -0.800781 0.78125 -1.03125 C 0.695312 -1.257812 0.65625 -1.503906 0.65625 -1.765625 C 0.65625 -2.171875 0.765625 -2.53125 0.984375 -2.84375 C 1.210938 -3.164062 1.535156 -3.445312 1.953125 -3.6875 C 2.378906 -3.925781 2.898438 -4.144531 3.515625 -4.34375 C 4.128906 -4.550781 4.828125 -4.75 5.609375 -4.9375 C 5.585938 -5.414062 5.488281 -5.800781 5.3125 -6.09375 C 5.144531 -6.382812 4.945312 -6.609375 4.71875 -6.765625 C 4.488281 -6.929688 4.242188 -7.039062 3.984375 -7.09375 C 3.734375 -7.144531 3.519531 -7.171875 3.34375 -7.171875 C 3.03125 -7.171875 2.753906 -7.125 2.515625 -7.03125 C 2.273438 -6.9375 2.066406 -6.8125 1.890625 -6.65625 C 1.722656 -6.507812 1.578125 -6.347656 1.453125 -6.171875 C 1.328125 -5.992188 1.226562 -5.828125 1.15625 -5.671875 L 1 -5.671875 L 1 -7 C 1.09375 -7.007812 1.179688 -7.035156 1.265625 -7.078125 C 1.359375 -7.128906 1.460938 -7.179688 1.578125 -7.234375 C 1.765625 -7.304688 2.015625 -7.410156 2.328125 -7.546875 C 2.640625 -7.691406 3.082031 -7.765625 3.65625 -7.765625 C 4.320312 -7.765625 4.859375 -7.675781 5.265625 -7.5 C 5.679688 -7.332031 6 -7.109375 6.21875 -6.828125 C 6.445312 -6.554688 6.597656 -6.238281 6.671875 -5.875 C 6.742188 -5.519531 6.78125 -5.15625 6.78125 -4.78125 L 6.78125 -1.1875 C 6.78125 -0.9375 6.832031 -0.707031 6.9375 -0.5 C 7.050781 -0.289062 7.195312 -0.1875 7.375 -0.1875 L 7.375 0 Z M 5.609375 -1.71875 L 5.609375 -4.328125 L 5.4375 -4.28125 C 5.144531 -4.207031 4.789062 -4.109375 4.375 -3.984375 C 3.957031 -3.867188 3.554688 -3.710938 3.171875 -3.515625 C 2.796875 -3.328125 2.472656 -3.097656 2.203125 -2.828125 C 1.941406 -2.566406 1.8125 -2.257812 1.8125 -1.90625 C 1.8125 -1.519531 1.96875 -1.195312 2.28125 -0.9375 C 2.601562 -0.6875 3.019531 -0.5625 3.53125 -0.5625 C 3.925781 -0.5625 4.273438 -0.648438 4.578125 -0.828125 C 4.878906 -1.003906 5.160156 -1.234375 5.421875 -1.515625 Z M 5.609375 -1.71875 "/></g></g></g><g fill="#000000" fill-opacity="1"><g transform="translate(63.904927, 15.889306)"><g><path d="M 5.25 -6.3125 C 5.101562 -6.550781 4.953125 -6.695312 4.796875 -6.75 C 4.640625 -6.8125 4.457031 -6.84375 4.25 -6.84375 C 4.113281 -6.84375 3.96875 -6.8125 3.8125 -6.75 C 3.664062 -6.695312 3.519531 -6.617188 3.375 -6.515625 C 3.226562 -6.421875 3.085938 -6.316406 2.953125 -6.203125 C 2.816406 -6.085938 2.695312 -5.984375 2.59375 -5.890625 L 2.59375 -1.15625 C 2.59375 -1.0625 2.601562 -0.957031 2.625 -0.84375 C 2.65625 -0.738281 2.695312 -0.632812 2.75 -0.53125 C 2.800781 -0.425781 2.859375 -0.34375 2.921875 -0.28125 C 2.992188 -0.21875 3.082031 -0.1875 3.1875 -0.1875 L 3.1875 0 L 0.8125 0 L 0.8125 -0.1875 C 0.894531 -0.1875 0.972656 -0.21875 1.046875 -0.28125 C 1.117188 -0.34375 1.179688 -0.425781 1.234375 -0.53125 C 1.296875 -0.632812 1.335938 -0.738281 1.359375 -0.84375 C 1.390625 -0.957031 1.40625 -1.0625 1.40625 -1.15625 L 1.40625 -6.234375 C 1.40625 -6.398438 1.347656 -6.566406 1.234375 -6.734375 C 1.128906 -6.910156 0.972656 -7.019531 0.765625 -7.0625 L 0.765625 -7.21875 L 2.59375 -7.765625 L 2.59375 -6.671875 C 2.707031 -6.804688 2.820312 -6.9375 2.9375 -7.0625 C 3.0625 -7.1875 3.195312 -7.300781 3.34375 -7.40625 C 3.5 -7.507812 3.664062 -7.59375 3.84375 -7.65625 C 4.03125 -7.726562 4.242188 -7.765625 4.484375 -7.765625 C 4.660156 -7.765625 4.878906 -7.726562 5.140625 -7.65625 C 5.410156 -7.582031 5.628906 -7.503906 5.796875 -7.421875 Z M 5.25 -6.3125 "/></g></g></g><g fill="#000000" fill-opacity="1"><g transform="translate(70.027612, 15.889306)"><g><path d="M 4.640625 0.125 C 4.023438 0.125 3.472656 0.0234375 2.984375 -0.171875 C 2.503906 -0.367188 2.09375 -0.640625 1.75 -0.984375 C 1.40625 -1.335938 1.140625 -1.75 0.953125 -2.21875 C 0.765625 -2.6875 0.671875 -3.203125 0.671875 -3.765625 C 0.671875 -4.359375 0.773438 -4.898438 0.984375 -5.390625 C 1.191406 -5.878906 1.472656 -6.296875 1.828125 -6.640625 C 2.191406 -6.992188 2.625 -7.269531 3.125 -7.46875 C 3.625 -7.664062 4.164062 -7.765625 4.75 -7.765625 C 5.320312 -7.765625 5.847656 -7.671875 6.328125 -7.484375 C 6.816406 -7.296875 7.238281 -7.03125 7.59375 -6.6875 C 7.945312 -6.34375 8.21875 -5.9375 8.40625 -5.46875 C 8.601562 -5.007812 8.703125 -4.5 8.703125 -3.9375 C 8.703125 -3.414062 8.613281 -2.910156 8.4375 -2.421875 C 8.257812 -1.929688 8 -1.5 7.65625 -1.125 C 7.3125 -0.75 6.890625 -0.445312 6.390625 -0.21875 C 5.890625 0.0078125 5.304688 0.125 4.640625 0.125 Z M 4.53125 -7.15625 C 4.09375 -7.132812 3.707031 -7.03125 3.375 -6.84375 C 3.039062 -6.65625 2.757812 -6.410156 2.53125 -6.109375 C 2.3125 -5.816406 2.144531 -5.484375 2.03125 -5.109375 C 1.914062 -4.734375 1.859375 -4.351562 1.859375 -3.96875 C 1.859375 -3.519531 1.925781 -3.082031 2.0625 -2.65625 C 2.195312 -2.238281 2.394531 -1.863281 2.65625 -1.53125 C 2.914062 -1.207031 3.226562 -0.945312 3.59375 -0.75 C 3.957031 -0.5625 4.363281 -0.46875 4.8125 -0.46875 C 5.257812 -0.46875 5.65625 -0.5625 6 -0.75 C 6.351562 -0.945312 6.644531 -1.203125 6.875 -1.515625 C 7.101562 -1.828125 7.273438 -2.175781 7.390625 -2.5625 C 7.503906 -2.945312 7.5625 -3.332031 7.5625 -3.71875 C 7.5625 -4.125 7.5 -4.53125 7.375 -4.9375 C 7.257812 -5.34375 7.070312 -5.710938 6.8125 -6.046875 C 6.5625 -6.378906 6.242188 -6.644531 5.859375 -6.84375 C 5.472656 -7.050781 5.03125 -7.15625 4.53125 -7.15625 Z M 4.53125 -7.15625 "/></g></g></g><g fill="#000000" fill-opacity="1"><g transform="translate(79.529575, 15.889306)"><g><path d="M 0.890625 0 L 0.890625 -0.1875 C 0.984375 -0.1875 1.066406 -0.222656 1.140625 -0.296875 C 1.210938 -0.367188 1.273438 -0.453125 1.328125 -0.546875 C 1.390625 -0.640625 1.429688 -0.742188 1.453125 -0.859375 C 1.472656 -0.972656 1.484375 -1.082031 1.484375 -1.1875 L 1.484375 -10.484375 C 1.484375 -10.691406 1.453125 -10.882812 1.390625 -11.0625 C 1.335938 -11.25 1.160156 -11.347656 0.859375 -11.359375 L 0.859375 -11.546875 L 2.6875 -12.109375 L 2.6875 -1.1875 C 2.6875 -1.082031 2.695312 -0.972656 2.71875 -0.859375 C 2.75 -0.742188 2.789062 -0.640625 2.84375 -0.546875 C 2.894531 -0.453125 2.953125 -0.367188 3.015625 -0.296875 C 3.085938 -0.222656 3.171875 -0.1875 3.265625 -0.1875 L 3.265625 0 Z M 0.890625 0 "/></g></g></g><g fill="#000000" fill-opacity="1"><g transform="translate(83.726423, 15.889306)"><g><path d="M 1.078125 0 L 1.078125 -0.1875 C 1.171875 -0.1875 1.253906 -0.222656 1.328125 -0.296875 C 1.398438 -0.367188 1.457031 -0.453125 1.5 -0.546875 C 1.550781 -0.640625 1.585938 -0.742188 1.609375 -0.859375 C 1.640625 -0.972656 1.65625 -1.082031 1.65625 -1.1875 L 1.65625 -6.21875 C 1.65625 -6.425781 1.625 -6.625 1.5625 -6.8125 C 1.5 -7 1.320312 -7.097656 1.03125 -7.109375 L 1.03125 -7.265625 L 2.859375 -7.84375 L 2.859375 -1.1875 C 2.859375 -1.082031 2.867188 -0.972656 2.890625 -0.859375 C 2.910156 -0.742188 2.945312 -0.640625 3 -0.546875 C 3.050781 -0.453125 3.113281 -0.367188 3.1875 -0.296875 C 3.257812 -0.222656 3.34375 -0.1875 3.4375 -0.1875 L 3.4375 0 Z M 1.15625 -9.59375 C 1.15625 -9.832031 1.238281 -10.035156 1.40625 -10.203125 C 1.570312 -10.378906 1.773438 -10.46875 2.015625 -10.46875 C 2.253906 -10.46875 2.457031 -10.378906 2.625 -10.203125 C 2.800781 -10.035156 2.890625 -9.832031 2.890625 -9.59375 C 2.890625 -9.351562 2.800781 -9.15625 2.625 -9 C 2.457031 -8.84375 2.253906 -8.765625 2.015625 -8.765625 C 1.773438 -8.765625 1.570312 -8.84375 1.40625 -9 C 1.238281 -9.15625 1.15625 -9.351562 1.15625 -9.59375 Z M 1.15625 -9.59375 "/></g></g></g><g fill="#000000" fill-opacity="1"><g transform="translate(2.121263, 27.723234)"><g><path d="M 3.316406 0.296875 L 4.167969 -3.664062 L 3.785156 -3.664062 L 3.210938 -1.003906 L 2.113281 -3.878906 L 1.007812 -1.003906 L 0.441406 -3.664062 L 0.0546875 -3.664062 L 0.910156 0.296875 L 2.113281 -2.894531 Z M 3.316406 0.296875 "/></g></g></g><g fill="#000000" fill-opacity="1"><g transform="translate(6.341701, 27.723234)"><g><path d="M 2.722656 -1.238281 C 2.722656 -1.5625 2.59375 -1.84375 2.34375 -2.085938 C 2.101562 -2.316406 1.8125 -2.4375 1.480469 -2.4375 C 1.136719 -2.4375 0.847656 -2.3125 0.605469 -2.070312 C 0.359375 -1.828125 0.242188 -1.535156 0.242188 -1.195312 C 0.242188 -0.851562 0.359375 -0.5625 0.605469 -0.324219 C 0.71875 -0.210938 0.847656 -0.125 0.996094 -0.0585938 C 1.148438 0.00390625 1.324219 0.0390625 1.535156 0.0390625 C 1.746094 0.0390625 1.953125 -0.0273438 2.15625 -0.15625 C 2.359375 -0.285156 2.511719 -0.46875 2.613281 -0.695312 L 2.183594 -0.695312 C 2.097656 -0.582031 1.996094 -0.496094 1.871094 -0.429688 C 1.746094 -0.367188 1.617188 -0.339844 1.480469 -0.339844 C 1.277344 -0.339844 1.09375 -0.402344 0.933594 -0.539062 C 0.769531 -0.667969 0.667969 -0.835938 0.636719 -1.039062 L 2.722656 -1.039062 Z M 2.324219 -1.363281 L 0.640625 -1.363281 C 0.664062 -1.460938 0.699219 -1.550781 0.753906 -1.636719 C 0.925781 -1.917969 1.167969 -2.058594 1.480469 -2.058594 C 1.683594 -2.058594 1.859375 -1.996094 2.015625 -1.863281 C 2.175781 -1.730469 2.273438 -1.5625 2.324219 -1.363281 Z M 2.324219 -1.363281 "/></g></g></g><g fill="#000000" fill-opacity="1"><g transform="translate(9.279294, 27.723234)"><g><path d="M 0.78125 0 L 0.78125 -0.402344 C 0.796875 -0.371094 0.824219 -0.34375 0.847656 -0.324219 C 1.074219 -0.0703125 1.347656 0.0546875 1.675781 0.0546875 C 2 0.0546875 2.273438 -0.0703125 2.5 -0.324219 C 2.714844 -0.566406 2.828125 -0.851562 2.828125 -1.1875 C 2.828125 -1.515625 2.714844 -1.800781 2.5 -2.046875 C 2.273438 -2.296875 2 -2.425781 1.675781 -2.425781 C 1.347656 -2.425781 1.074219 -2.296875 0.847656 -2.046875 C 0.824219 -2.019531 0.796875 -1.996094 0.78125 -1.960938 L 0.78125 -4.042969 L 0.402344 -4.042969 L 0.402344 0 Z M 2.453125 -1.1875 C 2.453125 -0.953125 2.371094 -0.75 2.210938 -0.582031 C 2.046875 -0.410156 1.847656 -0.324219 1.617188 -0.324219 C 1.378906 -0.324219 1.179688 -0.410156 1.019531 -0.582031 C 0.855469 -0.75 0.78125 -0.953125 0.78125 -1.1875 C 0.78125 -1.414062 0.855469 -1.617188 1.019531 -1.789062 C 1.179688 -1.960938 1.378906 -2.046875 1.617188 -2.046875 C 1.847656 -2.046875 2.046875 -1.960938 2.210938 -1.789062 C 2.371094 -1.617188 2.453125 -1.414062 2.453125 -1.1875 Z M 2.453125 -1.1875 "/></g></g></g><g fill="#000000" fill-opacity="1"><g transform="translate(12.351639, 27.723234)"><g/></g></g><g fill="#000000" fill-opacity="1"><g transform="translate(13.80696, 27.723234)"><g><path d="M 3.25 -1.832031 C 3.25 -2.097656 3.195312 -2.339844 3.097656 -2.566406 C 3.003906 -2.792969 2.867188 -2.984375 2.699219 -3.148438 C 2.527344 -3.308594 2.328125 -3.433594 2.101562 -3.523438 C 1.871094 -3.617188 1.621094 -3.664062 1.363281 -3.664062 L 0.402344 -3.664062 L 0.402344 0 L 1.363281 0 C 1.621094 0 1.871094 -0.0429688 2.101562 -0.132812 C 2.328125 -0.226562 2.527344 -0.355469 2.699219 -0.515625 C 2.867188 -0.679688 3.003906 -0.867188 3.097656 -1.09375 C 3.195312 -1.320312 3.25 -1.5625 3.25 -1.832031 Z M 2.882812 -1.832031 C 2.882812 -1.414062 2.734375 -1.0625 2.441406 -0.785156 C 2.152344 -0.511719 1.792969 -0.378906 1.375 -0.378906 L 0.78125 -0.378906 L 0.78125 -3.289062 L 1.375 -3.289062 C 1.792969 -3.289062 2.152344 -3.148438 2.441406 -2.878906 C 2.734375 -2.597656 2.882812 -2.246094 2.882812 -1.832031 Z M 2.882812 -1.832031 "/></g></g></g><g fill="#000000" fill-opacity="1"><g transform="translate(17.299738, 27.723234)"><g><path d="M 2.722656 -1.238281 C 2.722656 -1.5625 2.59375 -1.84375 2.34375 -2.085938 C 2.101562 -2.316406 1.8125 -2.4375 1.480469 -2.4375 C 1.136719 -2.4375 0.847656 -2.3125 0.605469 -2.070312 C 0.359375 -1.828125 0.242188 -1.535156 0.242188 -1.195312 C 0.242188 -0.851562 0.359375 -0.5625 0.605469 -0.324219 C 0.71875 -0.210938 0.847656 -0.125 0.996094 -0.0585938 C 1.148438 0.00390625 1.324219 0.0390625 1.535156 0.0390625 C 1.746094 0.0390625 1.953125 -0.0273438 2.15625 -0.15625 C 2.359375 -0.285156 2.511719 -0.46875 2.613281 -0.695312 L 2.183594 -0.695312 C 2.097656 -0.582031 1.996094 -0.496094 1.871094 -0.429688 C 1.746094 -0.367188 1.617188 -0.339844 1.480469 -0.339844 C 1.277344 -0.339844 1.09375 -0.402344 0.933594 -0.539062 C 0.769531 -0.667969 0.667969 -0.835938 0.636719 -1.039062 L 2.722656 -1.039062 Z M 2.324219 -1.363281 L 0.640625 -1.363281 C 0.664062 -1.460938 0.699219 -1.550781 0.753906 -1.636719 C 0.925781 -1.917969 1.167969 -2.058594 1.480469 -2.058594 C 1.683594 -2.058594 1.859375 -1.996094 2.015625 -1.863281 C 2.175781 -1.730469 2.273438 -1.5625 2.324219 -1.363281 Z M 2.324219 -1.363281 "/></g></g></g><g fill="#000000" fill-opacity="1"><g transform="translate(20.23733, 27.723234)"><g><path d="M 1.148438 0.226562 L 2.238281 -2.371094 L 1.828125 -2.371094 L 1.148438 -0.609375 L 0.464844 -2.371094 L 0.0546875 -2.371094 Z M 1.148438 0.226562 "/></g></g></g><g fill="#000000" fill-opacity="1"><g transform="translate(22.528116, 27.723234)"><g><path d="M 2.722656 -1.238281 C 2.722656 -1.5625 2.59375 -1.84375 2.34375 -2.085938 C 2.101562 -2.316406 1.8125 -2.4375 1.480469 -2.4375 C 1.136719 -2.4375 0.847656 -2.3125 0.605469 -2.070312 C 0.359375 -1.828125 0.242188 -1.535156 0.242188 -1.195312 C 0.242188 -0.851562 0.359375 -0.5625 0.605469 -0.324219 C 0.71875 -0.210938 0.847656 -0.125 0.996094 -0.0585938 C 1.148438 0.00390625 1.324219 0.0390625 1.535156 0.0390625 C 1.746094 0.0390625 1.953125 -0.0273438 2.15625 -0.15625 C 2.359375 -0.285156 2.511719 -0.46875 2.613281 -0.695312 L 2.183594 -0.695312 C 2.097656 -0.582031 1.996094 -0.496094 1.871094 -0.429688 C 1.746094 -0.367188 1.617188 -0.339844 1.480469 -0.339844 C 1.277344 -0.339844 1.09375 -0.402344 0.933594 -0.539062 C 0.769531 -0.667969 0.667969 -0.835938 0.636719 -1.039062 L 2.722656 -1.039062 Z M 2.324219 -1.363281 L 0.640625 -1.363281 C 0.664062 -1.460938 0.699219 -1.550781 0.753906 -1.636719 C 0.925781 -1.917969 1.167969 -2.058594 1.480469 -2.058594 C 1.683594 -2.058594 1.859375 -1.996094 2.015625 -1.863281 C 2.175781 -1.730469 2.273438 -1.5625 2.324219 -1.363281 Z M 2.324219 -1.363281 "/></g></g></g><g fill="#000000" fill-opacity="1"><g transform="translate(25.465708, 27.723234)"><g><path d="M 0.78125 0 L 0.78125 -4.042969 L 0.402344 -4.042969 L 0.402344 0 Z M 0.78125 0 "/></g></g></g><g fill="#000000" fill-opacity="1"><g transform="translate(26.651525, 27.723234)"><g><path d="M 2.34375 -1.195312 C 2.34375 -0.960938 2.257812 -0.761719 2.089844 -0.59375 C 1.917969 -0.421875 1.71875 -0.339844 1.480469 -0.339844 C 1.246094 -0.339844 1.039062 -0.421875 0.875 -0.59375 C 0.699219 -0.761719 0.621094 -0.960938 0.621094 -1.195312 C 0.621094 -1.433594 0.699219 -1.632812 0.875 -1.804688 C 1.039062 -1.972656 1.246094 -2.058594 1.480469 -2.058594 C 1.71875 -2.058594 1.917969 -1.972656 2.089844 -1.804688 C 2.257812 -1.632812 2.34375 -1.433594 2.34375 -1.195312 Z M 2.722656 -1.195312 C 2.722656 -1.535156 2.597656 -1.828125 2.355469 -2.070312 C 2.113281 -2.3125 1.820312 -2.4375 1.480469 -2.4375 C 1.136719 -2.4375 0.847656 -2.3125 0.605469 -2.070312 C 0.359375 -1.828125 0.242188 -1.535156 0.242188 -1.195312 C 0.242188 -0.851562 0.359375 -0.5625 0.605469 -0.324219 C 0.847656 -0.0820312 1.144531 0.0390625 1.480469 0.0390625 C 1.816406 0.0390625 2.113281 -0.0820312 2.355469 -0.324219 C 2.597656 -0.5625 2.722656 -0.851562 2.722656 -1.195312 Z M 2.722656 -1.195312 "/></g></g></g><g clip-path="url(#927ddc9b19)"><g fill="#000000" fill-opacity="1"><g transform="translate(29.616073, 27.723234)"><g><path d="M 0.78125 1.347656 L 0.78125 -0.402344 C 0.796875 -0.371094 0.824219 -0.34375 0.847656 -0.324219 C 1.074219 -0.0703125 1.347656 0.0546875 1.675781 0.0546875 C 2 0.0546875 2.273438 -0.0703125 2.5 -0.324219 C 2.714844 -0.566406 2.828125 -0.851562 2.828125 -1.1875 C 2.828125 -1.515625 2.714844 -1.800781 2.5 -2.046875 C 2.273438 -2.296875 2 -2.425781 1.675781 -2.425781 C 1.347656 -2.425781 1.074219 -2.296875 0.847656 -2.046875 C 0.824219 -2.019531 0.796875 -1.996094 0.78125 -1.960938 L 0.78125 -2.371094 L 0.402344 -2.371094 L 0.402344 1.347656 Z M 2.453125 -1.1875 C 2.453125 -0.953125 2.371094 -0.75 2.210938 -0.582031 C 2.046875 -0.410156 1.847656 -0.324219 1.617188 -0.324219 C 1.378906 -0.324219 1.179688 -0.410156 1.019531 -0.582031 C 0.855469 -0.75 0.78125 -0.953125 0.78125 -1.1875 C 0.78125 -1.414062 0.855469 -1.617188 1.019531 -1.789062 C 1.179688 -1.960938 1.378906 -2.046875 1.617188 -2.046875 C 1.847656 -2.046875 2.046875 -1.960938 2.210938 -1.789062 C 2.371094 -1.617188 2.453125 -1.414062 2.453125 -1.1875 Z M 2.453125 -1.1875 "/></g></g></g></g><g fill="#000000" fill-opacity="1"><g transform="translate(32.688418, 27.723234)"><g><path d="M 2.722656 -1.238281 C 2.722656 -1.5625 2.59375 -1.84375 2.34375 -2.085938 C 2.101562 -2.316406 1.8125 -2.4375 1.480469 -2.4375 C 1.136719 -2.4375 0.847656 -2.3125 0.605469 -2.070312 C 0.359375 -1.828125 0.242188 -1.535156 0.242188 -1.195312 C 0.242188 -0.851562 0.359375 -0.5625 0.605469 -0.324219 C 0.71875 -0.210938 0.847656 -0.125 0.996094 -0.0585938 C 1.148438 0.00390625 1.324219 0.0390625 1.535156 0.0390625 C 1.746094 0.0390625 1.953125 -0.0273438 2.15625 -0.15625 C 2.359375 -0.285156 2.511719 -0.46875 2.613281 -0.695312 L 2.183594 -0.695312 C 2.097656 -0.582031 1.996094 -0.496094 1.871094 -0.429688 C 1.746094 -0.367188 1.617188 -0.339844 1.480469 -0.339844 C 1.277344 -0.339844 1.09375 -0.402344 0.933594 -0.539062 C 0.769531 -0.667969 0.667969 -0.835938 0.636719 -1.039062 L 2.722656 -1.039062 Z M 2.324219 -1.363281 L 0.640625 -1.363281 C 0.664062 -1.460938 0.699219 -1.550781 0.753906 -1.636719 C 0.925781 -1.917969 1.167969 -2.058594 1.480469 -2.058594 C 1.683594 -2.058594 1.859375 -1.996094 2.015625 -1.863281 C 2.175781 -1.730469 2.273438 -1.5625 2.324219 -1.363281 Z M 2.324219 -1.363281 "/></g></g></g><g fill="#000000" fill-opacity="1"><g transform="translate(35.62601, 27.723234)"><g><path d="M 1.621094 -1.882812 L 1.621094 -2.371094 C 1.546875 -2.402344 1.464844 -2.421875 1.386719 -2.421875 C 1.117188 -2.421875 0.921875 -2.269531 0.796875 -1.976562 L 0.78125 -1.882812 L 0.78125 -2.371094 L 0.402344 -2.371094 L 0.402344 0 L 0.78125 0 L 0.78125 -1.1875 C 0.78125 -1.378906 0.824219 -1.550781 0.917969 -1.707031 C 0.960938 -1.789062 1.019531 -1.859375 1.089844 -1.914062 C 1.160156 -1.96875 1.246094 -2 1.34375 -2 C 1.4375 -2 1.53125 -1.957031 1.621094 -1.882812 Z M 1.621094 -1.882812 "/></g></g></g></svg>