<svg xmlns="http://www.w3.org/2000/svg" xmlns:xlink="http://www.w3.org/1999/xlink" width="200" zoomAndPan="magnify" viewBox="0 0 150 30.000001" height="40" preserveAspectRatio="xMidYMid meet" version="1.0"><defs><g/></defs><g fill="#000000" fill-opacity="1"><g transform="translate(3.567771, 20.38199)"><g><path d="M 3.671875 -2.203125 L 8.0625 -2.203125 L 8.0625 0 L 1.03125 0 L 1.03125 -10.34375 L 3.671875 -10.34375 Z M 3.671875 -2.203125 "/></g></g></g><g fill="#000000" fill-opacity="1"><g transform="translate(15.034527, 20.38199)"><g><path d="M 5.9375 -10.4375 C 7.539062 -10.4375 8.875 -9.9375 9.9375 -8.9375 C 11.007812 -7.9375 11.546875 -6.6875 11.546875 -5.1875 C 11.546875 -3.675781 11.007812 -2.410156 9.9375 -1.390625 C 8.875 -0.378906 7.539062 0.125 5.9375 0.125 C 4.34375 0.125 3.015625 -0.378906 1.953125 -1.390625 C 0.890625 -2.398438 0.359375 -3.664062 0.359375 -5.1875 C 0.359375 -6.695312 0.890625 -7.945312 1.953125 -8.9375 C 3.015625 -9.9375 4.34375 -10.4375 5.9375 -10.4375 Z M 5.96875 -8.234375 C 5.164062 -8.234375 4.476562 -7.9375 3.90625 -7.34375 C 3.332031 -6.757812 3.046875 -6.035156 3.046875 -5.171875 C 3.046875 -4.304688 3.332031 -3.570312 3.90625 -2.96875 C 4.488281 -2.375 5.175781 -2.078125 5.96875 -2.078125 C 6.769531 -2.078125 7.445312 -2.375 8 -2.96875 C 8.5625 -3.570312 8.84375 -4.304688 8.84375 -5.171875 C 8.84375 -6.035156 8.5625 -6.757812 8 -7.34375 C 7.445312 -7.9375 6.769531 -8.234375 5.96875 -8.234375 Z M 5.96875 -8.234375 "/></g></g></g><g fill="#000000" fill-opacity="1"><g transform="translate(30.120452, 20.38199)"><g><path d="M 7.265625 0 L 5.734375 -2.90625 L 3.671875 -2.90625 L 3.671875 0 L 1.03125 0 L 1.03125 -10.34375 L 5.65625 -10.34375 C 7.03125 -10.34375 8.09375 -10.03125 8.84375 -9.40625 C 9.59375 -8.78125 9.96875 -7.890625 9.96875 -6.734375 C 9.96875 -5.140625 9.335938 -4.035156 8.078125 -3.421875 L 10.265625 0 Z M 3.671875 -4.984375 L 5.65625 -4.984375 C 6.226562 -4.984375 6.671875 -5.125 6.984375 -5.40625 C 7.304688 -5.695312 7.46875 -6.113281 7.46875 -6.65625 C 7.46875 -7.1875 7.304688 -7.585938 6.984375 -7.859375 C 6.671875 -8.140625 6.226562 -8.28125 5.65625 -8.28125 L 3.671875 -8.28125 Z M 3.671875 -4.984375 "/></g></g></g><g fill="#000000" fill-opacity="1"><g transform="translate(44.009837, 20.38199)"><g><path d="M 3.671875 0 L 1.03125 0 L 1.03125 -10.34375 L 3.671875 -10.34375 Z M 3.671875 0 "/></g></g></g><g fill="#000000" fill-opacity="1"><g transform="translate(51.901729, 20.38199)"><g><path d="M 5.015625 -10.46875 C 6.554688 -10.46875 7.914062 -10.082031 9.09375 -9.3125 L 8.09375 -7.25 C 7.550781 -7.570312 6.96875 -7.832031 6.34375 -8.03125 C 5.726562 -8.238281 5.210938 -8.34375 4.796875 -8.34375 C 4.035156 -8.34375 3.65625 -8.085938 3.65625 -7.578125 C 3.65625 -7.253906 3.84375 -6.992188 4.21875 -6.796875 C 4.59375 -6.597656 5.046875 -6.425781 5.578125 -6.28125 C 6.117188 -6.144531 6.65625 -5.972656 7.1875 -5.765625 C 7.726562 -5.566406 8.1875 -5.238281 8.5625 -4.78125 C 8.9375 -4.332031 9.125 -3.765625 9.125 -3.078125 C 9.125 -2.078125 8.734375 -1.296875 7.953125 -0.734375 C 7.171875 -0.179688 6.179688 0.09375 4.984375 0.09375 C 4.117188 0.09375 3.269531 -0.0507812 2.4375 -0.34375 C 1.601562 -0.644531 0.875 -1.050781 0.25 -1.5625 L 1.265625 -3.59375 C 1.785156 -3.132812 2.398438 -2.757812 3.109375 -2.46875 C 3.828125 -2.1875 4.460938 -2.046875 5.015625 -2.046875 C 5.429688 -2.046875 5.757812 -2.117188 6 -2.265625 C 6.238281 -2.421875 6.359375 -2.644531 6.359375 -2.9375 C 6.359375 -3.226562 6.222656 -3.46875 5.953125 -3.65625 C 5.679688 -3.851562 5.34375 -4 4.9375 -4.09375 C 4.53125 -4.1875 4.085938 -4.3125 3.609375 -4.46875 C 3.140625 -4.625 2.703125 -4.796875 2.296875 -4.984375 C 1.898438 -5.171875 1.566406 -5.46875 1.296875 -5.875 C 1.023438 -6.28125 0.890625 -6.769531 0.890625 -7.34375 C 0.890625 -8.289062 1.265625 -9.046875 2.015625 -9.609375 C 2.765625 -10.179688 3.765625 -10.46875 5.015625 -10.46875 Z M 5.015625 -10.46875 "/></g></g></g><g fill="#000000" fill-opacity="1"><g transform="translate(64.609343, 20.38199)"><g/></g></g><g fill="#000000" fill-opacity="1"><g transform="translate(71.23083, 20.38199)"><g><path d="M 12.40625 0 L 10.078125 0 L 10.0625 -6.71875 L 7.578125 -1.03125 L 5.875 -1.03125 L 3.390625 -6.71875 L 3.390625 0 L 1.03125 0 L 1.03125 -10.359375 L 3.921875 -10.359375 L 6.71875 -4.203125 L 9.53125 -10.359375 L 12.40625 -10.359375 Z M 12.40625 0 "/></g></g></g><g fill="#000000" fill-opacity="1"><g transform="translate(87.867828, 20.38199)"><g><path d="M 7.90625 -1.90625 L 3.390625 -1.90625 L 2.625 0 L -0.078125 0 L 4.390625 -10.34375 L 7.09375 -10.34375 L 11.453125 0 L 8.640625 0 Z M 7.140625 -3.90625 L 5.65625 -7.734375 L 4.15625 -3.90625 Z M 7.140625 -3.90625 "/></g></g></g><g fill="#000000" fill-opacity="1"><g transform="translate(102.436737, 20.38199)"><g><path d="M 7.265625 0 L 5.734375 -2.90625 L 3.671875 -2.90625 L 3.671875 0 L 1.03125 0 L 1.03125 -10.34375 L 5.65625 -10.34375 C 7.03125 -10.34375 8.09375 -10.03125 8.84375 -9.40625 C 9.59375 -8.78125 9.96875 -7.890625 9.96875 -6.734375 C 9.96875 -5.140625 9.335938 -4.035156 8.078125 -3.421875 L 10.265625 0 Z M 3.671875 -4.984375 L 5.65625 -4.984375 C 6.226562 -4.984375 6.671875 -5.125 6.984375 -5.40625 C 7.304688 -5.695312 7.46875 -6.113281 7.46875 -6.65625 C 7.46875 -7.1875 7.304688 -7.585938 6.984375 -7.859375 C 6.671875 -8.140625 6.226562 -8.28125 5.65625 -8.28125 L 3.671875 -8.28125 Z M 3.671875 -4.984375 "/></g></g></g><g fill="#000000" fill-opacity="1"><g transform="translate(116.326119, 20.38199)"><g><path d="M 5.9375 -10.4375 C 7.539062 -10.4375 8.875 -9.9375 9.9375 -8.9375 C 11.007812 -7.9375 11.546875 -6.6875 11.546875 -5.1875 C 11.546875 -3.675781 11.007812 -2.410156 9.9375 -1.390625 C 8.875 -0.378906 7.539062 0.125 5.9375 0.125 C 4.34375 0.125 3.015625 -0.378906 1.953125 -1.390625 C 0.890625 -2.398438 0.359375 -3.664062 0.359375 -5.1875 C 0.359375 -6.695312 0.890625 -7.945312 1.953125 -8.9375 C 3.015625 -9.9375 4.34375 -10.4375 5.9375 -10.4375 Z M 5.96875 -8.234375 C 5.164062 -8.234375 4.476562 -7.9375 3.90625 -7.34375 C 3.332031 -6.757812 3.046875 -6.035156 3.046875 -5.171875 C 3.046875 -4.304688 3.332031 -3.570312 3.90625 -2.96875 C 4.488281 -2.375 5.175781 -2.078125 5.96875 -2.078125 C 6.769531 -2.078125 7.445312 -2.375 8 -2.96875 C 8.5625 -3.570312 8.84375 -4.304688 8.84375 -5.171875 C 8.84375 -6.035156 8.5625 -6.757812 8 -7.34375 C 7.445312 -7.9375 6.769531 -8.234375 5.96875 -8.234375 Z M 5.96875 -8.234375 "/></g></g></g><g fill="#000000" fill-opacity="1"><g transform="translate(131.412043, 20.38199)"><g><path d="M 3.671875 -2.203125 L 8.0625 -2.203125 L 8.0625 0 L 1.03125 0 L 1.03125 -10.34375 L 3.671875 -10.34375 Z M 3.671875 -2.203125 "/></g></g></g><g fill="#000000" fill-opacity="1"><g transform="translate(142.878798, 20.38199)"><g><path d="M 3.671875 0 L 1.03125 0 L 1.03125 -10.34375 L 3.671875 -10.34375 Z M 3.671875 0 "/></g></g></g></svg>